<svg version="1.0" xmlns="http://www.w3.org/2000/svg"
  viewBox="0 0 2216.000000 1763.000000"
 preserveAspectRatio="xMidYMid meet" width="200" height="150">

<g transform="translate(0.000000,1763.000000) scale(0.100000,-0.100000)"
fill="#0f172a" stroke="none">
<!-- Cuadro Violeta -->
<path  fill="#675CFF" opacity="1.000000" stroke="none" d="M11584 13680 c-83 -9 -144 -41 -227 -119 -39 -36 -222 -224 -406
-418 -185 -193 -457 -477 -606 -630 -533 -551 -691 -717 -732 -772 -65 -86
-76 -128 -71 -289 3 -120 6 -143 27 -182 27 -52 148 -177 497 -515 276 -267
286 -274 359 -240 21 10 95 81 176 167 197 210 208 164 -126 495 -169 169
-267 273 -271 290 -5 19 -1 37 12 60 10 18 163 180 339 360 176 181 460 475
631 653 492 512 482 504 553 457 21 -14 222 -204 447 -423 225 -219 450 -436
499 -483 50 -47 186 -179 303 -293 208 -202 212 -207 212 -247 0 -47 76 36
-812 -883 -536 -556 -614 -634 -649 -647 -37 -14 -69 5 -164 98 -106 103 -131
121 -171 121 -31 0 -49 -15 -182 -151 -81 -83 -155 -167 -165 -186 -22 -41
-17 -73 19 -120 40 -53 362 -351 407 -377 23 -14 80 -34 127 -46 163 -42 282
-16 410 90 31 27 241 239 466 472 225 232 556 574 735 758 607 625 610 628
644 771 19 82 19 140 0 214 -33 126 -53 153 -294 389 -124 123 -283 276 -353
342 -69 65 -261 250 -425 409 -723 701 -827 799 -888 831 -96 51 -173 61 -321
44z"/>
<!-- Cuadro Negro -->
<path fill="#0f172a" opacity="1.000000" stroke="none" d="M9930 13649 c-104 -17 -153 -51 -315 -219 -82 -85 -269 -276 -415
-425 -146 -148 -326 -335 -400 -415 -74 -80 -281 -296 -460 -480 -349 -359
-374 -388 -417 -471 -27 -52 -28 -60 -28 -194 0 -164 9 -195 85 -289 26 -34
205 -212 396 -396 191 -184 505 -488 697 -675 504 -490 736 -706 798 -740 52
-29 59 -30 202 -33 l149 -4 66 33 c55 27 100 65 251 213 100 100 251 255 334
346 83 91 318 334 522 540 387 391 712 734 777 821 58 78 82 167 76 293 -4 89
-9 112 -37 172 -28 60 -56 92 -224 259 -106 105 -274 268 -375 363 -236 223
-210 220 -385 40 -214 -221 -234 -254 -189 -318 9 -14 128 -135 264 -268 141
-140 249 -253 252 -268 9 -35 -13 -69 -89 -144 -37 -36 -146 -150 -243 -255
-98 -104 -323 -338 -502 -520 -179 -181 -382 -391 -452 -466 -71 -76 -141
-142 -159 -149 -28 -12 -36 -11 -65 6 -43 25 -402 363 -789 744 -171 168 -393
384 -493 480 -193 185 -200 196 -171 253 17 31 222 250 509 542 136 138 330
340 432 450 242 260 456 471 492 485 48 18 91 -5 190 -100 96 -92 121 -110
156 -110 26 0 101 70 256 238 118 127 131 152 104 201 -5 10 -97 102 -204 204
-213 204 -264 238 -377 257 -74 12 -142 11 -219 -1z"/>
<!-- Punto de la i -->
<path d="M14027 8797 c-189 -59 -196 -324 -10 -388 21 -8 68 -13 104 -13 122
0 217 73 227 173 7 78 -5 118 -50 167 -62 67 -172 92 -271 61z"/>
 <!-- Letra M -->
<path  fill="#675CFF" d="M4660 7845 l0 -735 205 0 205 0 2 394 3 394 134 -394 135 -394 172 0
172 0 135 398 136 397 0 -397 1 -398 205 0 205 0 0 735 0 735 -247 -2 -247 -3
-172 -455 c-95 -250 -176 -461 -181 -467 -5 -8 -74 158 -188 457 l-180 470
-247 0 -248 0 0 -735z"/>
<!-- Letra D -->
<path  fill="#675CFF" d="M6610 7846 l0 -736 295 0 c332 0 456 10 565 46 180 60 327 186 404
346 56 118 76 207 76 347 0 144 -20 235 -76 351 -65 132 -162 228 -295 294
-161 79 -165 79 -591 84 l-378 3 0 -735z m642 373 c124 -27 218 -101 258 -205
33 -84 34 -243 1 -326 -28 -72 -94 -141 -165 -174 -60 -27 -183 -47 -271 -42
l-60 3 -3 365 c-1 201 0 371 3 377 6 17 163 17 237 2z"/>
<!-- Letra t -->
<path  d="M13100 8420 l0 -140 -70 0 -70 0 0 -165 0 -165 70 0 70 0 0 -232 c0
-258 11 -335 57 -419 31 -59 75 -100 141 -133 70 -35 138 -46 287 -46 l135 0
0 170 0 170 -79 0 c-64 0 -83 4 -105 21 l-26 20 0 225 0 224 105 0 105 0 0
165 0 165 -105 0 -105 0 0 140 0 140 -205 0 -205 0 0 -140z"/>
<!-- Letra c -->
<path  d="M8486 8274 c-264 -64 -431 -316 -412 -621 11 -166 64 -291 166 -393
164 -164 470 -207 697 -99 86 41 188 141 231 224 23 47 62 154 62 172 0 2 -96
3 -214 3 l-214 0 -19 -37 c-25 -48 -70 -75 -127 -75 -90 -2 -149 65 -167 188
-11 80 3 182 33 235 57 102 200 104 259 4 l21 -35 214 0 214 0 -6 28 c-49 204
-202 361 -395 407 -80 19 -263 18 -343 -1z"/>
<!-- Letra r -->
<path  d="M10086 8279 c-68 -16 -153 -69 -215 -134 l-61 -63 0 99 0 99 -205 0
-205 0 0 -580 0 -580 205 0 205 0 0 288 c1 300 5 338 47 384 36 41 101 61 216
66 l107 5 0 213 0 214 -27 -1 c-16 -1 -45 -5 -67 -10z"/>
<!-- Letra e -->
<path  d="M10673 8271 c-152 -44 -272 -140 -337 -272 -90 -184 -88 -433 6 -612
171 -326 684 -386 947 -112 58 60 110 150 127 218 l6 27 -212 0 -212 0 -37
-41 c-85 -96 -245 -58 -280 66 -23 82 -58 75 374 75 l384 0 7 35 c8 44 -4 171
-22 244 -48 182 -197 326 -390 375 -86 22 -279 20 -361 -3z m281 -319 c40 -23
76 -77 76 -113 l0 -29 -181 0 -180 0 6 23 c24 78 59 116 125 136 45 13 115 6
154 -17z"/>
<!-- Letra a  -->
<path d="M11889 8267 c-170 -59 -288 -215 -325 -429 -52 -297 60 -580 269
-683 180 -88 374 -67 499 54 l58 57 0 -73 0 -73 205 0 205 0 0 580 0 580 -205
0 -205 0 0 -76 0 -77 -41 46 c-25 29 -65 59 -107 79 -61 30 -75 33 -177 36
-94 2 -120 -1 -176 -21z m379 -346 c85 -44 122 -112 122 -225 0 -61 -5 -83
-28 -127 -96 -183 -353 -137 -392 71 -24 129 30 249 130 289 43 17 128 13 168
-8z"/>
<!-- Letra o -->
<path  d="M14920 8274 c-210 -55 -373 -221 -415 -421 -32 -150 -10 -339 52
-456 15 -29 59 -84 98 -123 108 -109 225 -159 400 -170 394 -25 677 252 651
636 -12 171 -55 270 -165 381 -84 84 -161 127 -272 154 -82 19 -275 19 -349
-1z m279 -363 c145 -86 128 -375 -26 -443 -93 -41 -199 -2 -244 89 -20 40 -24
63 -24 143 1 78 5 102 23 137 27 51 75 90 128 101 52 12 90 5 143 -27z"/>
<!-- Letra n -->
<path  d="M16527 8279 c-61 -14 -137 -58 -194 -111 l-53 -51 0 82 0 81 -200 0
-200 0 0 -580 0 -580 199 0 200 0 3 343 c3 335 3 343 26 389 28 56 61 83 126
100 88 23 177 -17 218 -100 23 -46 23 -54 26 -389 l3 -343 200 0 199 0 0 368
c0 202 -5 396 -10 432 -22 135 -114 271 -219 324 -84 43 -227 58 -324 35z"/>
<!-- Letra s -->
<path d="M17598 8274 c-127 -30 -220 -100 -270 -202 -30 -60 -33 -75 -33 -152
1 -102 24 -158 87 -216 58 -52 125 -80 301 -124 162 -40 211 -59 221 -85 24
-63 -18 -105 -101 -105 -69 0 -126 30 -148 77 l-16 33 -196 0 -195 0 6 -37
c12 -67 63 -157 119 -210 130 -123 346 -177 559 -140 112 19 185 53 252 117
78 74 100 124 100 230 0 105 -26 171 -91 231 -61 56 -126 84 -309 129 -166 42
-198 56 -216 96 -10 20 -8 29 8 51 26 35 64 47 120 38 51 -7 108 -51 118 -90
l6 -25 184 0 184 0 -14 62 c-38 161 -161 284 -325 323 -80 18 -273 18 -351 -1z"/>
<!-- Letra i -->
<path d="M13910 7700 l0 -580 205 0 205 0 0 580 0 580 -205 0 -205 0 0 -580z"/>
</g>
</svg>